<?xml version="1.0" encoding="utf-8"?>
<!DOCTYPE svg PUBLIC "-//W3C//DTD SVG 1.1//EN" "http://www.w3.org/Graphics/SVG/1.1/DTD/svg11.dtd">
<svg version="1.1" id="Calque_1" xmlns="http://www.w3.org/2000/svg" xmlns:xlink="http://www.w3.org/1999/xlink" x="0px" y="0px"
	 width="24px" height="24px" viewBox="0 0 24 24" enable-background="new 0 0 24 24" xml:space="preserve">
<path fill="#FFFFFF" d="M20.53,24.1H4.821c-0.824,0-1.552-0.728-1.552-1.551V1.651C3.27,0.827,3.997,0.1,4.821,0.1H20.53
	c0.824,0,1.552,0.727,1.552,1.552v20.897C22.033,23.421,21.403,24.1,20.53,24.1z M4.87,0.536c-0.582,0-1.018,0.436-1.018,1.019
	v20.896c0,0.582,0.437,1.115,1.018,1.115h15.708c0.582,0,1.019-0.437,1.019-1.115V1.603c0-0.582-0.437-1.019-1.019-1.019H4.87V0.536
	z M19.464,21.481H5.888V2.669h13.576V21.481z M6.421,20.997h12.606V3.203H6.421V20.997z M16.894,18.863H8.555V15.76h8.339V18.863z
	 M8.991,18.379h7.37v-2.134h-7.37V18.379z M16.894,13.627H8.555v-3.103h8.339V13.627z M8.991,13.143h7.37v-2.134h-7.37V13.143z
	 M16.894,8.439H8.555V5.336h8.339V8.439z M8.991,7.906h7.37V5.772h-7.37V7.906z"/>
</svg>
