<?xml version="1.0" encoding="utf-8"?>
<!-- Generator: Adobe Illustrator 18.0.0, SVG Export Plug-In . SVG Version: 6.00 Build 0)  -->
<!DOCTYPE svg PUBLIC "-//W3C//DTD SVG 1.1//EN" "http://www.w3.org/Graphics/SVG/1.1/DTD/svg11.dtd">
<svg version="1.1" xmlns="http://www.w3.org/2000/svg" xmlns:xlink="http://www.w3.org/1999/xlink" x="0px" y="0px"
	 viewBox="0 0 692.2 283" enable-background="new 0 0 692.2 283" xml:space="preserve">
<g id="Calque_1">
	<g>
		<path fill="#FFFFFF" d="M222.5,22.6v68.2c0,28-28.1,28-28.1,28h-8v-16.1h8c12.1,0,12.1-11.9,12.1-11.9V38.7h-20V22.6H222.5z"/>
		<path fill="#FFFFFF" d="M245,86.7v-64H261v64c0.8,11.1,9.7,16.1,19.9,16.1c10,0,20-5.4,20-16.1v-64H317v64
			c0,20.5-16.9,32-36.1,32.1C261.2,118,245,106.5,245,86.7z"/>
		<path fill="#FFFFFF" d="M387.8,102.8v16.1h-51.6V22.8h16.1v80H387.8z"/>
		<path fill="#FFFFFF" d="M407.2,22.8h16.1v96.1h-16.1V22.8z"/>
		<path fill="#FFFFFF" d="M458.8,38.8v24h48v15.9h-48v24h48v16.1h-64.1V22.8h64.1v16.1H458.8z"/>
	</g>
	<g>
		<path fill="#FFFFFF" d="M225.1,128l-19.5,48.9L186,128H225.1z M205.6,154.9l7.5-18.8h-15L205.6,154.9z"/>
		<path fill="#FFFFFF" d="M228,160.6V128h8.2v32.6c0.4,5.7,5,8.2,10.1,8.2c5.1,0,10.2-2.7,10.2-8.2V128h8.2v32.6
			c0,10.4-8.6,16.3-18.4,16.3C236.2,176.5,228,170.6,228,160.6z"/>
		<path fill="#FFFFFF" d="M267.4,128h8.2v48.9h-8.2V128z"/>
		<path fill="#FFFFFF" d="M304.9,168.7v8.2h-26.3V128h8.2v40.7H304.9z"/>
		<path fill="#FFFFFF" d="M334,168.7v8.2h-26.3V128h8.2v40.7H334z"/>
		<path fill="#FFFFFF" d="M364.8,170.8h-16.6l-2.4,6.1H337l19.5-48.9l19.6,48.9h-8.8L364.8,170.8z M361.6,162.7l-5.1-12.6l-5,12.6
			H361.6z"/>
		<path fill="#FFFFFF" d="M379,160.6V128h8.2v32.6c0.4,5.7,5,8.2,10.1,8.2c5.1,0,10.2-2.7,10.2-8.2V128h8.2v32.6
			c0,10.4-8.6,16.3-18.4,16.3C387.2,176.5,379,170.6,379,160.6z"/>
		<path fill="#FFFFFF" d="M471.5,176.9h-8.2v-30l-14,30h-7.7l-15-30.7v30.7h-8.2v-49h8.3l18.6,38.1l17.8-38.1h8.3V176.9z"/>
		<path fill="#FFFFFF" d="M482.6,136.2v12.2H507v8.1h-24.5v12.2H507v8.2h-32.6V128H507v8.2H482.6z"/>
	</g>
	<g>
		<path fill="#FFFFFF" d="M222.9,223.5L212,196.1L201,223.5l-13.9-34.9h6.3l7.6,19.2l7.7-19.2h6.5l7.7,19.2l7.7-19.2h6.3
			L222.9,223.5z"/>
		<path fill="#FFFFFF" d="M244.7,194.4v8.7h17.5v5.8h-17.5v8.7h17.5v5.8h-23.3v-34.9h23.3v5.8H244.7z"/>
		<path fill="#FFFFFF" d="M287.5,213.3c0,10.2-11.6,10.2-11.6,10.2h-11.6v-34.9h11.6c0,0,11.6,0,11.6,10.2c0,7.3-5.8,7.3-5.8,7.3
			C287.5,206.1,287.5,213.3,287.5,213.3z M270.1,203.1h5.8c0,0,5.8,0,5.8-4.3c0-4.4-5.8-4.4-5.8-4.4h-5.8V203.1z M281.7,213.3
			c0-4.3-5.8-4.3-5.8-4.3h-5.8v8.7h5.8C275.9,217.7,281.7,217.7,281.7,213.3z"/>
		<path fill="#FFFFFF" d="M332.8,206c0,17.5-20.3,17.5-20.3,17.5h-5.8v-34.9h5.8C312.4,188.6,332.8,188.6,332.8,206z M327,206
			c0-11.6-14.5-11.6-14.5-11.6v23.3C312.4,217.6,327,217.6,327,206z"/>
		<path fill="#FFFFFF" d="M340.6,194.4v8.7h17.5v5.8h-17.5v8.7h17.5v5.8h-23.3v-34.9h23.3v5.8H340.6z"/>
		<path fill="#FFFFFF" d="M360.2,213.3h5.8c0.1,2.9,2.5,4.3,5.1,4.3c2.7,0,5.1-1.6,5.1-4.3c0-2.9-2.7-4.3-5.1-4.4
			c-0.3,0-2.7,0-5.2-1.1c-3.6-1.7-5.7-4.9-5.7-9c0-6.2,5.3-10.2,10.9-10.2c6,0,10.8,4.2,10.9,10.2h-5.8c-0.1-2.9-2.4-4.3-5.1-4.3
			c-2.7,0-5.1,1.5-5.1,4.3c0,2.9,2.5,4.4,5.1,4.4c0.2,0,2.7,0,5.2,1.1c3.7,1.7,5.7,4.9,5.7,9c0,6.2-5.2,10.2-10.9,10.2
			C365.1,223.3,360.3,219.4,360.2,213.3z"/>
		<path fill="#FFFFFF" d="M384.1,188.5h5.8v34.9h-5.8V188.5z"/>
		<path fill="#FFFFFF" d="M424.1,203.1v20.4h-5.8v-2.3c-2.6,1.5-5.5,2.3-8.7,2.3c-9.6,0-17.5-7.8-17.5-17.5s7.8-17.5,17.5-17.5
			c4.8,0,9.2,1.9,12.3,5.1l-4.1,4.1c-2.1-2.1-5-3.4-8.2-3.4c-6.4,0-11.6,5.2-11.6,11.6s5.2,11.6,11.6,11.6c3.5,0,6.6-1.5,8.7-3.9
			v-4.8h-10.2v-5.8H424.1z"/>
		<path fill="#FFFFFF" d="M455.3,223.5h-5.9l-17.4-24.9v24.9h-5.8v-34.9h5.9l17.4,24.9v-24.9h5.8V223.5z"/>
		<path fill="#FFFFFF" d="M463.3,194.4v8.7h17.5v5.8h-17.5v8.7h17.5v5.8h-23.3v-34.9h23.3v5.8H463.3z"/>
		<path fill="#FFFFFF" d="M493.5,208.9h-4.7v14.6h-5.8v-34.9h11.6c0,0,11.7,0,11.7,10.2c0,5.6-3.6,8.1-6.7,9.3l7.1,15.5h-6.4
			L493.5,208.9z M488.7,203.1h5.8c0,0,5.8,0,5.8-4.4c0-4.3-5.8-4.3-5.8-4.3h-5.8V203.1z"/>
	</g>
	<g>
		<path fill="#FFFFFF" d="M211,234.6v17.3c0,0.3,0,3.1-1.5,6c-2,4.1-5.9,6.3-10.8,6.3c-5,0-8.8-2.2-10.9-6.3c-1.4-2.9-1.5-5.7-1.5-6
			v-17.3H211z M187.2,235.4v16.5c0,0.3,0,2.9,1.4,5.6c1.9,3.8,5.5,5.8,10.1,5.8c4.6,0,8.2-2.1,10.1-5.8c1.4-2.7,1.4-5.4,1.4-5.6
			v-16.5H187.2z M198.7,260.1c-3.3,0-5.7-1.4-7.1-3.9c-1-2-1.2-4.3-1.2-4.3v-13.2H207v13.1c0,0.1,0,2.3-1.2,4.4
			C204.5,258.9,202.2,260.1,198.7,260.1z M206.1,251.8v-12.3h-14.8v12.3c0,0,0,2,1.1,3.9c1.2,2.3,3.3,3.4,6.3,3.4
			c3.1,0,5.2-1.1,6.3-3.4C206.1,253.9,206.1,251.9,206.1,251.8z"/>
		<path fill="#FFFFFF" d="M229.9,239.5v19.7h2.5v5h-9.9v-5h2.5v-19.7h-2.5v-5h9.9v5H229.9z M231.5,238.7v-3.3h-8.1v3.3h2.4v21.4
			h-2.4v3.3h8.1v-3.3h-2.4v-21.4H231.5z"/>
		<path fill="#FFFFFF" d="M290.9,249.4c0,14.8-17.3,14.8-17.3,14.8h-5v-29.6h5C273.7,234.6,290.9,234.6,290.9,249.4z M269.6,235.5
			v27.9h4.1c0,0,16.4,0,16.4-14c0-13.9-16.4-13.9-16.4-13.9H269.6z M272.9,259.3v-20.6c0,0,14,0,14,10.7c0,10.7-13.2,10.7-13.2,10.7
			L272.9,259.3z M286,249.4c0-9.9-12.3-9.9-12.3-9.9v19.7C273.7,259.3,286,259.3,286,249.4z"/>
		<path fill="#FFFFFF" d="M307.2,239v7.6h15.2v5h-15.2v7.6h15.2v5.1h-20.2v-30.4h20.2v5.1H307.2z M321.6,238.1v-3.3H303v28.6h18.5
			V260h-15.2v-9.3h15.2v-3.3h-15.2v-9.3H321.6z"/>
		<path fill="#FFFFFF" d="M333.5,255.4h5.1c0.1,2.5,2.2,3.8,4.4,3.8c2.3,0,4.4-1.4,4.4-3.8c0-2.6-2.4-3.7-4.4-3.8
			c-0.3,0-2.4,0-4.6-1c-3.2-1.5-4.9-4.2-4.9-7.8c0-5.4,4.6-8.9,9.5-8.9c5.2,0,9.3,3.7,9.5,8.9h-5.1c-0.1-2.5-2.1-3.8-4.4-3.8
			c-2.4,0-4.4,1.4-4.4,3.8c0,2.5,2.2,3.8,4.4,3.8c0.2,0,2.3,0,4.5,1c3.2,1.5,5,4.3,5,7.9c0,5.4-4.6,8.9-9.5,8.9
			C337.7,264.1,333.5,260.7,333.5,255.4z M351.6,255.4c0-3.3-1.6-5.7-4.4-7.1c-2-0.9-4-0.9-4.2-0.9c-2.7,0-5.3-1.6-5.3-4.7
			c0-3,2.4-4.7,5.3-4.7c2.6,0,4.8,1.1,5.2,3.8h3.3c-0.5-4.2-4.1-7.1-8.5-7.1c-4.5,0-8.7,3.1-8.7,8c0,3.2,1.7,5.7,4.4,7.1
			c2,0.9,4,0.9,4.2,0.9c2.4,0.1,5.3,1.6,5.3,4.7c0,3-2.5,4.6-5.3,4.6c-2.5,0-4.8-1.1-5.2-3.8h-3.4c0.4,4.4,4,7,8.6,7.1
			C347.4,263.4,351.6,260.3,351.6,255.4z"/>
		<path fill="#FFFFFF" d="M363.8,233.9h5.1v30.4h-5.1V233.9z M364.7,263.4h3.4v-28.6h-3.4V263.4z"/>
		<path fill="#FFFFFF" d="M408.5,246.5v17.7h-5.1v-2c-2.3,1.3-4.8,2-7.6,2c-8.3,0-15.2-6.8-15.2-15.2c0-8.3,6.8-15.2,15.2-15.2
			c4.2,0,8,1.7,10.7,4.5l-3.6,3.6c-1.8-1.8-4.4-3-7.2-3c-5.6,0-10.1,4.5-10.1,10.1c0,5.6,4.5,10.1,10.1,10.1c3.1,0,5.8-1.3,7.6-3.4
			v-4.2h-8.9v-5H408.5z M395.5,247.4v3.3h8.8v5.3c-2.2,2.5-5.2,4-8.5,4c-6.1,0-11-4.9-11-11c0-6.1,4.9-11,11-11
			c2.4,0,5.3,1.3,7.1,2.7l2.4-2.4c-2.5-2.2-5.9-3.6-9.5-3.6c-7.9,0-14.3,6.4-14.3,14.3c0,7.9,6.4,14.3,14.3,14.3
			c2.7,0,5.6-1,8.5-2.6v2.6h3.4v-16H395.5z"/>
		<path fill="#FFFFFF" d="M444.3,264.3h-5.1l-15.1-21.6v21.6H419v-30.4h5.2l15.1,21.6v-21.6h5V264.3z M443.4,234.8h-3.3v23.4
			l-16.5-23.4h-3.8v28.6h3.4v-23.5l16.4,23.5h3.8V234.8z"/>
		<path fill="#FFFFFF" d="M460.1,239v7.6h15.2v5h-15.2v7.6h15.2v5.1H455v-30.4h20.2v5.1H460.1z M474.4,238.1v-3.3h-18.5v28.6h18.5
			V260h-15.2v-9.3h15.2v-3.3h-15.2v-9.3H474.4z"/>
		<path fill="#FFFFFF" d="M495.5,251.6h-4.1v12.7h-5.1v-30.4h10.1c0,0,10.1,0,10.1,8.9c0,4.9-3.1,7.1-5.8,8.1l6.2,13.5h-5.6
			L495.5,251.6z M501.9,263.4h3.7c-1.9-4.2-4.2-9.1-6-13.1c2.9-1,6.2-3.2,6.2-7.5c0-8-9.3-8-9.3-8h-9.3v28.6h3.4v-12.7h5.5
			L501.9,263.4z M490.5,238.1h5.9c0,0,6,0,6,4.7c0,4.7-6,4.7-6,4.7h-5.9V238.1z M491.4,246.5h5c0,0,5.1,0,5.1-3.8
			c0-3.8-5.1-3.8-5.1-3.8h-5V246.5z"/>
	</g>
	<rect x="186.3" y="0" fill="#FFFFFF" width="320.8" height="5.7"/>
	<rect x="186.3" y="277.4" fill="#FFFFFF" width="320.8" height="5.7"/>
</g>
<g id="Calque_2">
	<path fill="#FFFFFF" d="M5.1,123.8l6.4,1.2v-3.8L5.1,123.8z M12.2,125.7L2.9,124l9.3-3.8V125.7z"/>
	<path fill="#FFFFFF" d="M15.3,125.9l16.7,1.9l-4.4-11.7l-13.4,2.8L15.3,125.9z M33,128.6l-18.2-2.1l-1.2-8.1l14.5-3L33,128.6z"/>
	<path fill="#FFFFFF" d="M53,126.7l-12.3,15.2l-9.6,3.2l16.7-33.5L53,126.7z M41.1,142.5L53.6,127l0.1-0.1L47.9,110l-18.1,36.2
		L41.1,142.5z"/>
	<path fill="#FFFFFF" d="M31.1,131.4L12,176.6L0.7,156.9l18.7-27.4L31.1,131.4z M12,178.1l20-47.2l-12.9-2.1L0,156.8L12,178.1z"/>
	<path fill="#FFFFFF" d="M27.5,149l-7.9,18.2l16.7-20.4L27.5,149z M17.2,171.2l9.8-22.7l11-2.7L17.2,171.2z"/>
	<path fill="#FFFFFF" d="M66.1,115.8l-46.7,57l50.5-20.5L66.1,115.8z M17.3,174.3l49.2-60.1l4,38.5l-0.2,0.1L17.3,174.3z"/>
	<path fill="#FFFFFF" d="M17.7,177H47l4-13.2L17.7,177z M47.5,177.7H14.3L52,162.7L47.5,177.7z"/>
	<path fill="#FFFFFF" d="M50.6,177H72l-9.5-18l-7.4,3.2L50.6,177z M73.1,177.7H49.8l4.8-15.9l8.3-3.5L73.1,177.7z"/>
	<path fill="#FFFFFF" d="M65.6,158.2l7,13.8l6.9-7.8l-9.3-8.1L65.6,158.2z M72.5,173.1l-7.8-15.2l5.6-2.5l10.1,8.8L72.5,173.1z"/>
	<path fill="#FFFFFF" d="M79.8,159.6l-6.7-6l10.8-8.5L79.8,159.6z M85,143.4l-13,10.2l8.1,7.1L85,143.4z"/>
	<path fill="#FFFFFF" d="M680.7,121.2v3.8l6.4-1.2L680.7,121.2z M680,120.2l9.3,3.8l-9.3,1.7V120.2z"/>
	<path fill="#FFFFFF" d="M678,118.9l-13.4-2.8l-4.4,11.7l16.7-1.9L678,118.9z M664.2,115.4l14.5,3l-1.2,8.1l-18.2,2.1L664.2,115.4z"
		/>
	<path fill="#FFFFFF" d="M644.4,111.6l16.7,33.5l-9.6-3.2l-12.3-15.2L644.4,111.6z M662.4,146.2L644.3,110l-5.8,16.9l0.1,0.1
		l12.6,15.5L662.4,146.2z"/>
	<path fill="#FFFFFF" d="M672.8,129.5l18.7,27.4l-11.2,19.7L661,131.4L672.8,129.5z M692.2,156.8l-19.1-28.1l-12.9,2.1l20,47.2
		L692.2,156.8z"/>
	<path fill="#FFFFFF" d="M655.9,146.8l16.7,20.4l-7.9-18.2L655.9,146.8z M654.2,145.7l11,2.7l9.8,22.7L654.2,145.7z"/>
	<path fill="#FFFFFF" d="M622.3,152.3l50.5,20.5l-46.7-57L622.3,152.3z M621.8,152.8l-0.2-0.1l4-38.5l49.2,60.1L621.8,152.8z"/>
	<path fill="#FFFFFF" d="M641.2,163.8l4,13.2h29.4L641.2,163.8z M640.2,162.7l37.7,14.9h-33.2L640.2,162.7z"/>
	<path fill="#FFFFFF" d="M637.1,162.2l-7.4-3.2l-9.5,18h21.4L637.1,162.2z M629.4,158.2l8.3,3.5l4.8,15.9h-23.3L629.4,158.2z"/>
	<path fill="#FFFFFF" d="M622,156.1l-9.3,8.1l6.9,7.8l7-13.8L622,156.1z M611.8,164.1l10.1-8.8l5.6,2.5l-7.8,15.2L611.8,164.1z"/>
	<path fill="#FFFFFF" d="M608.3,145.2l10.8,8.5l-6.7,6L608.3,145.2z M612.1,160.8l8.1-7.1l-13-10.2L612.1,160.8z"/>
</g>
</svg>
