<?xml version="1.0" encoding="utf-8"?>
<!-- Generator: Adobe Illustrator 18.0.0, SVG Export Plug-In . SVG Version: 6.00 Build 0)  -->
<!DOCTYPE svg PUBLIC "-//W3C//DTD SVG 1.1//EN" "http://www.w3.org/Graphics/SVG/1.1/DTD/svg11.dtd">
<svg version="1.1" id="Calque_1" xmlns="http://www.w3.org/2000/svg" xmlns:xlink="http://www.w3.org/1999/xlink" x="0px" y="0px"
	 viewBox="0 0 340.2 283" enable-background="new 0 0 340.2 283" xml:space="preserve">
<g>
	<path fill="#FFFFFF" d="M36.4,22.6v68.2c0,28-28.1,28-28.1,28h-8v-16.1h8c12.1,0,12.1-11.9,12.1-11.9V38.7h-20V22.6H36.4z"/>
	<path fill="#FFFFFF" d="M58.9,86.7v-64H75v64c0.8,11.1,9.7,16.1,19.9,16.1c10,0,20-5.4,20-16.1v-64H131v64
		c0,20.5-16.9,32-36.1,32.1C75.1,118,58.9,106.5,58.9,86.7z"/>
	<path fill="#FFFFFF" d="M201.8,102.8v16.1h-51.6V22.8h16.1v80H201.8z"/>
	<path fill="#FFFFFF" d="M221.2,22.8h16.1v96.1h-16.1V22.8z"/>
	<path fill="#FFFFFF" d="M272.8,38.8v24h48v15.9h-48v24h48v16.1h-64.1V22.8h64.1v16.1H272.8z"/>
</g>
<g>
	<path fill="#FFFFFF" d="M39.1,128l-19.5,48.9L0,128H39.1z M19.6,154.9l7.5-18.8H12L19.6,154.9z"/>
	<path fill="#FFFFFF" d="M41.9,160.6V128h8.2v32.6c0.4,5.7,5,8.2,10.1,8.2c5.1,0,10.2-2.7,10.2-8.2V128h8.2v32.6
		c0,10.4-8.6,16.3-18.4,16.3C50.2,176.5,41.9,170.6,41.9,160.6z"/>
	<path fill="#FFFFFF" d="M81.4,128h8.2v48.9h-8.2V128z"/>
	<path fill="#FFFFFF" d="M118.9,168.7v8.2H92.6V128h8.2v40.7H118.9z"/>
	<path fill="#FFFFFF" d="M148,168.7v8.2h-26.3V128h8.2v40.7H148z"/>
	<path fill="#FFFFFF" d="M178.7,170.8h-16.6l-2.4,6.1h-8.8l19.5-48.9l19.6,48.9h-8.8L178.7,170.8z M175.5,162.7l-5.1-12.6l-5,12.6
		H175.5z"/>
	<path fill="#FFFFFF" d="M192.9,160.6V128h8.2v32.6c0.4,5.7,5,8.2,10.1,8.2c5.1,0,10.2-2.7,10.2-8.2V128h8.2v32.6
		c0,10.4-8.6,16.3-18.4,16.3C201.2,176.5,192.9,170.6,192.9,160.6z"/>
	<path fill="#FFFFFF" d="M285.5,176.9h-8.2v-30l-14,30h-7.7l-15-30.7v30.7h-8.2v-49h8.3l18.6,38.1l17.8-38.1h8.3V176.9z"/>
	<path fill="#FFFFFF" d="M296.5,136.2v12.2H321v8.1h-24.5v12.2H321v8.2h-32.6V128H321v8.2H296.5z"/>
</g>
<g>
	<path fill="#FFFFFF" d="M36.9,223.5l-10.9-27.4L15,223.5L1.1,188.5h6.3l7.6,19.2l7.7-19.2h6.5l7.7,19.2l7.7-19.2h6.3L36.9,223.5z"
		/>
	<path fill="#FFFFFF" d="M58.7,194.4v8.7h17.5v5.8H58.7v8.7h17.5v5.8H52.8v-34.9h23.3v5.8H58.7z"/>
	<path fill="#FFFFFF" d="M101.5,213.3c0,10.2-11.6,10.2-11.6,10.2H78.2v-34.9h11.6c0,0,11.6,0,11.6,10.2c0,7.3-5.8,7.3-5.8,7.3
		C101.5,206.1,101.5,213.3,101.5,213.3z M84,203.1h5.8c0,0,5.8,0,5.8-4.3c0-4.4-5.8-4.4-5.8-4.4H84V203.1z M95.7,213.3
		c0-4.3-5.8-4.3-5.8-4.3H84v8.7h5.8C89.9,217.7,95.7,217.7,95.7,213.3z"/>
	<path fill="#FFFFFF" d="M146.7,206c0,17.5-20.3,17.5-20.3,17.5h-5.8v-34.9h5.8C126.4,188.6,146.7,188.6,146.7,206z M140.9,206
		c0-11.6-14.5-11.6-14.5-11.6v23.3C126.4,217.6,140.9,217.6,140.9,206z"/>
	<path fill="#FFFFFF" d="M154.6,194.4v8.7h17.5v5.8h-17.5v8.7h17.5v5.8h-23.3v-34.9h23.3v5.8H154.6z"/>
	<path fill="#FFFFFF" d="M174.2,213.3h5.8c0.1,2.9,2.5,4.3,5.1,4.3c2.7,0,5.1-1.6,5.1-4.3c0-2.9-2.7-4.3-5.1-4.4
		c-0.3,0-2.7,0-5.2-1.1c-3.6-1.7-5.7-4.9-5.7-9c0-6.2,5.3-10.2,10.9-10.2c6,0,10.8,4.2,10.9,10.2h-5.8c-0.1-2.9-2.4-4.3-5.1-4.3
		c-2.7,0-5.1,1.5-5.1,4.3c0,2.9,2.5,4.4,5.1,4.4c0.2,0,2.7,0,5.2,1.1c3.7,1.7,5.7,4.9,5.7,9c0,6.2-5.2,10.2-10.9,10.2
		C179.1,223.3,174.3,219.4,174.2,213.3z"/>
	<path fill="#FFFFFF" d="M198.1,188.5h5.8v34.9h-5.8V188.5z"/>
	<path fill="#FFFFFF" d="M238.1,203.1v20.4h-5.8v-2.3c-2.6,1.5-5.5,2.3-8.7,2.3c-9.6,0-17.5-7.8-17.5-17.5s7.8-17.5,17.5-17.5
		c4.8,0,9.2,1.9,12.3,5.1l-4.1,4.1c-2.1-2.1-5-3.4-8.2-3.4c-6.4,0-11.6,5.2-11.6,11.6s5.2,11.6,11.6,11.6c3.5,0,6.6-1.5,8.7-3.9
		v-4.8h-10.2v-5.8H238.1z"/>
	<path fill="#FFFFFF" d="M269.3,223.5h-5.9L246,198.6v24.9h-5.8v-34.9h5.9l17.4,24.9v-24.9h5.8V223.5z"/>
	<path fill="#FFFFFF" d="M277.3,194.4v8.7h17.5v5.8h-17.5v8.7h17.5v5.8h-23.3v-34.9h23.3v5.8H277.3z"/>
	<path fill="#FFFFFF" d="M307.4,208.9h-4.7v14.6h-5.8v-34.9h11.6c0,0,11.7,0,11.7,10.2c0,5.6-3.6,8.1-6.7,9.3l7.1,15.5h-6.4
		L307.4,208.9z M302.7,203.1h5.8c0,0,5.8,0,5.8-4.4c0-4.3-5.8-4.3-5.8-4.3h-5.8V203.1z"/>
</g>
<g>
	<path fill="#FFFFFF" d="M25,234.6v17.3c0,0.3,0,3.1-1.5,6c-2,4.1-5.9,6.3-10.8,6.3c-5,0-8.8-2.2-10.9-6.3c-1.4-2.9-1.5-5.7-1.5-6
		v-17.3H25z M1.2,235.4v16.5c0,0.3,0,2.9,1.4,5.6c1.9,3.8,5.5,5.8,10.1,5.8c4.6,0,8.2-2.1,10.1-5.8c1.4-2.7,1.4-5.4,1.4-5.6v-16.5
		H1.2z M12.7,260.1c-3.3,0-5.7-1.4-7.1-3.9c-1-2-1.2-4.3-1.2-4.3v-13.2H21v13.1c0,0.1,0,2.3-1.2,4.4
		C18.5,258.9,16.1,260.1,12.7,260.1z M20.1,251.8v-12.3H5.3v12.3c0,0,0,2,1.1,3.9c1.2,2.3,3.3,3.4,6.3,3.4c3.1,0,5.2-1.1,6.3-3.4
		C20.1,253.9,20.1,251.9,20.1,251.8z"/>
	<path fill="#FFFFFF" d="M43.9,239.5v19.7h2.5v5h-9.9v-5h2.5v-19.7h-2.5v-5h9.9v5H43.9z M45.4,238.7v-3.3h-8.1v3.3h2.4v21.4h-2.4
		v3.3h8.1v-3.3H43v-21.4H45.4z"/>
	<path fill="#FFFFFF" d="M104.9,249.4c0,14.8-17.3,14.8-17.3,14.8h-5v-29.6h5C87.7,234.6,104.9,234.6,104.9,249.4z M83.5,235.5v27.9
		h4.1c0,0,16.4,0,16.4-14c0-13.9-16.4-13.9-16.4-13.9H83.5z M86.8,259.3v-20.6c0,0,14,0,14,10.7c0,10.7-13.2,10.7-13.2,10.7
		L86.8,259.3z M100,249.4c0-9.9-12.3-9.9-12.3-9.9v19.7C87.7,259.3,100,259.3,100,249.4z"/>
	<path fill="#FFFFFF" d="M121.2,239v7.6h15.2v5h-15.2v7.6h15.2v5.1h-20.2v-30.4h20.2v5.1H121.2z M135.5,238.1v-3.3H117v28.6h18.5
		V260h-15.2v-9.3h15.2v-3.3h-15.2v-9.3H135.5z"/>
	<path fill="#FFFFFF" d="M147.4,255.4h5.1c0.1,2.5,2.2,3.8,4.4,3.8c2.3,0,4.4-1.4,4.4-3.8c0-2.6-2.4-3.7-4.4-3.8c-0.3,0-2.4,0-4.6-1
		c-3.2-1.5-4.9-4.2-4.9-7.8c0-5.4,4.6-8.9,9.5-8.9c5.2,0,9.3,3.7,9.5,8.9h-5.1c-0.1-2.5-2.1-3.8-4.4-3.8c-2.4,0-4.4,1.4-4.4,3.8
		c0,2.5,2.2,3.8,4.4,3.8c0.2,0,2.3,0,4.5,1c3.2,1.5,5,4.3,5,7.9c0,5.4-4.6,8.9-9.5,8.9C151.7,264.1,147.5,260.7,147.4,255.4z
		 M165.5,255.4c0-3.3-1.6-5.7-4.4-7.1c-2-0.9-4-0.9-4.2-0.9c-2.7,0-5.3-1.6-5.3-4.7c0-3,2.4-4.7,5.3-4.7c2.6,0,4.8,1.1,5.2,3.8h3.3
		c-0.5-4.2-4.1-7.1-8.5-7.1c-4.5,0-8.7,3.1-8.7,8c0,3.2,1.7,5.7,4.4,7.1c2,0.9,4,0.9,4.2,0.9c2.4,0.1,5.3,1.6,5.3,4.7
		c0,3-2.5,4.6-5.3,4.6c-2.5,0-4.8-1.1-5.2-3.8h-3.4c0.4,4.4,4,7,8.6,7.1C161.4,263.4,165.5,260.3,165.5,255.4z"/>
	<path fill="#FFFFFF" d="M177.7,233.9h5.1v30.4h-5.1V233.9z M178.6,263.4h3.4v-28.6h-3.4V263.4z"/>
	<path fill="#FFFFFF" d="M222.5,246.5v17.7h-5.1v-2c-2.3,1.3-4.8,2-7.6,2c-8.3,0-15.2-6.8-15.2-15.2c0-8.3,6.8-15.2,15.2-15.2
		c4.2,0,8,1.7,10.7,4.5l-3.6,3.6c-1.8-1.8-4.4-3-7.2-3c-5.6,0-10.1,4.5-10.1,10.1c0,5.6,4.5,10.1,10.1,10.1c3.1,0,5.8-1.3,7.6-3.4
		v-4.2h-8.9v-5H222.5z M209.4,247.4v3.3h8.8v5.3c-2.2,2.5-5.2,4-8.5,4c-6.1,0-11-4.9-11-11c0-6.1,4.9-11,11-11
		c2.4,0,5.3,1.3,7.1,2.7l2.4-2.4c-2.5-2.2-5.9-3.6-9.5-3.6c-7.9,0-14.3,6.4-14.3,14.3c0,7.9,6.4,14.3,14.3,14.3c2.7,0,5.6-1,8.5-2.6
		v2.6h3.4v-16H209.4z"/>
	<path fill="#FFFFFF" d="M258.2,264.3h-5.1L238,242.6v21.6h-5.1v-30.4h5.2l15.1,21.6v-21.6h5V264.3z M257.4,234.8h-3.3v23.4
		l-16.5-23.4h-3.8v28.6h3.4v-23.5l16.4,23.5h3.8V234.8z"/>
	<path fill="#FFFFFF" d="M274,239v7.6h15.2v5H274v7.6h15.2v5.1H269v-30.4h20.2v5.1H274z M288.4,238.1v-3.3h-18.5v28.6h18.5V260
		h-15.2v-9.3h15.2v-3.3h-15.2v-9.3H288.4z"/>
	<path fill="#FFFFFF" d="M309.4,251.6h-4.1v12.7h-5.1v-30.4h10.1c0,0,10.1,0,10.1,8.9c0,4.9-3.1,7.1-5.8,8.1l6.2,13.5h-5.6
		L309.4,251.6z M315.8,263.4h3.7c-1.9-4.2-4.2-9.1-6-13.1c2.9-1,6.2-3.2,6.2-7.5c0-8-9.3-8-9.3-8h-9.3v28.6h3.4v-12.7h5.5
		L315.8,263.4z M304.4,238.1h5.9c0,0,6,0,6,4.7c0,4.7-6,4.7-6,4.7h-5.9V238.1z M305.3,246.5h5c0,0,5.1,0,5.1-3.8
		c0-3.8-5.1-3.8-5.1-3.8h-5V246.5z"/>
</g>
<rect x="0.3" y="0" fill="#FFFFFF" width="320.8" height="5.7"/>
<rect x="0.3" y="277.4" fill="#FFFFFF" width="320.8" height="5.7"/>
</svg>
