<?xml version="1.0" encoding="utf-8"?>
<!-- Generator: Adobe Illustrator 18.0.0, SVG Export Plug-In . SVG Version: 6.00 Build 0)  -->
<!DOCTYPE svg PUBLIC "-//W3C//DTD SVG 1.1//EN" "http://www.w3.org/Graphics/SVG/1.1/DTD/svg11.dtd">
<svg version="1.1" id="Calque_1" xmlns="http://www.w3.org/2000/svg" xmlns:xlink="http://www.w3.org/1999/xlink" x="0px" y="0px"
	 viewBox="0 0 85 68.1" enable-background="new 0 0 85 68.1" xml:space="preserve">
<path fill="#FFFFFF" d="M5.1,13.8l6.4,1.2v-3.8L5.1,13.8z M12.2,15.7L2.9,14l9.3-3.8V15.7z"/>
<path fill="#FFFFFF" d="M15.3,15.9L32,17.9L27.6,6.1L14.2,8.9L15.3,15.9z M33,18.6l-18.2-2.1l-1.2-8.1l14.5-3L33,18.6z"/>
<path fill="#FFFFFF" d="M53,16.7L40.7,31.9l-9.6,3.2L47.8,1.6L53,16.7z M41.1,32.5L53.6,17l0.1-0.1L47.9,0L29.8,36.2L41.1,32.5z"/>
<path fill="#FFFFFF" d="M31.1,21.4L12,66.6L0.7,46.9l18.7-27.4L31.1,21.4z M12,68.1l20-47.2l-12.9-2.1L0,46.8L12,68.1z"/>
<path fill="#FFFFFF" d="M27.5,39l-7.9,18.2l16.7-20.4L27.5,39z M17.2,61.2L27,38.5l11-2.7L17.2,61.2z"/>
<path fill="#FFFFFF" d="M66.1,5.8l-46.7,57l50.5-20.5L66.1,5.8z M17.3,64.3L66.5,4.2l4,38.5l-0.2,0.1L17.3,64.3z"/>
<path fill="#FFFFFF" d="M17.7,67H47l4-13.2L17.7,67z M47.5,67.7H14.3L52,52.7L47.5,67.7z"/>
<path fill="#FFFFFF" d="M50.6,67H72l-9.5-18l-7.4,3.2L50.6,67z M73.1,67.7H49.8l4.8-15.9l8.3-3.5L73.1,67.7z"/>
<path fill="#FFFFFF" d="M65.6,48.2l7,13.8l6.9-7.8l-9.3-8.1L65.6,48.2z M72.5,63.1l-7.8-15.2l5.6-2.5l10.1,8.8L72.5,63.1z"/>
<path fill="#FFFFFF" d="M79.8,49.6l-6.7-6l10.8-8.5L79.8,49.6z M85,33.4l-13,10.2l8.1,7.1L85,33.4z"/>
</svg>
